<?xml version="1.0" encoding="UTF-8" standalone="no"?>
<svg
   id="Layer_1"
   version="1.1"
   viewBox="0 0 108.55581 125.61197"
   sodipodi:docname="CL_Logo.svg"
   width="108.55581"
   height="125.61197"
   inkscape:export-filename="CL_icon.svg"
   inkscape:export-xdpi="176.86755"
   inkscape:export-ydpi="176.86755"
   inkscape:version="1.4 (e7c3feb1, 2024-10-09)"
   xmlns:inkscape="http://www.inkscape.org/namespaces/inkscape"
   xmlns:sodipodi="http://sodipodi.sourceforge.net/DTD/sodipodi-0.dtd"
   xmlns="http://www.w3.org/2000/svg"
   xmlns:svg="http://www.w3.org/2000/svg">
  <sodipodi:namedview
     id="namedview34"
     pagecolor="#ffffff"
     bordercolor="#000000"
     borderopacity="0.25"
     inkscape:showpageshadow="2"
     inkscape:pageopacity="0.0"
     inkscape:pagecheckerboard="0"
     inkscape:deskcolor="#d1d1d1"
     inkscape:zoom="1.78"
     inkscape:cx="206.46067"
     inkscape:cy="63.202247"
     inkscape:window-width="1472"
     inkscape:window-height="824"
     inkscape:window-x="0"
     inkscape:window-y="38"
     inkscape:window-maximized="0"
     inkscape:current-layer="g34" />
  <!-- Generator: Adobe Illustrator 29.1.0, SVG Export Plug-In . SVG Version: 2.1.0 Build 142)  -->
  <defs
     id="defs1">
    <style
       id="style1">
      .st0 {
        fill: #f68b1f;
      }

      .st1 {
        fill: #003f48;
      }
    </style>
  </defs>
  <g
     id="g34"
     transform="matrix(1.0043599,0,0,1,-2.4156772,150.93908)">
    <path
       class="st0"
       d="m 81.424885,-36.427119 c -2.2,-6.3 -0.5,-13.5 1.3,-21.1 1.8,-7.9 3.7,-16 0.9,-23.1 0.7,-0.7 1.2,-1.6 1.2,-2.7 0,-2 -1.6,-3.6 -3.6,-3.6 -2,0 -3.6,1.6 -3.6,3.6 0,2 1.6,3.6 3.6,3.6 2,0 0.2,0 0.3,0 2.5,6.4 0.8,13.9 -1,21.8 -1.8,7.9 -3.7,16.1 -0.8,23.2 l 0.3,0.9 0.9,-0.2 c 2,-0.4 4.2,0.5 5.6,2.3 1.2,1.5 1.5,3.3 0.8,4.8 -0.3,0.6 0,1.2 0.5,1.5 0.2,0 0.3,0.1 0.5,0.1 0.4,0 0.8,-0.2 1,-0.6 1.1,-2.3 0.7,-4.9 -1.1,-7.1 -1.7,-2.2 -4.3,-3.4 -6.9,-3.2 z m -1.6,-47 c 0,-0.7 0.6,-1.4 1.4,-1.4 0.8,0 1.4,0.6 1.4,1.4 0,0.8 -0.6,1.4 -1.4,1.4 -0.8,0 -1.4,-0.6 -1.4,-1.4 z"
       id="path8" />
    <path
       class="st0"
       d="m 82.424885,-28.027119 c -1.4,0 -3.5,-0.1 -5.6,-0.2 -2.1,0 -4.1,0 -5.4,-0.1 -0.4,0 -1,0 -1.3,-0.3 -0.2,-0.2 -0.2,-0.6 -0.3,-0.9 l -4.5,-26.5 c -0.1,-0.6 -0.7,-1 -1.3,-0.9 -0.6,0.1 -1,0.7 -0.9,1.3 l 4.5,26.5 c 0,0.6 0.2,1.4 0.9,2.1 0.8,0.9 2.1,0.9 2.8,1 1.3,0 3.4,0 5.5,0.1 2.1,0 4.3,0.1 5.6,0.2 v 0 c 0.6,0 1.1,-0.5 1.1,-1.1 0,-0.6 -0.5,-1.1 -1.1,-1.2 z"
       id="path9" />
    <path
       class="st0"
       d="m 93.824885,-39.927119 c 6.499995,-23.2 5.1,-47.8 -3.7,-65.800001 -0.3,-0.6 -0.9,-0.8 -1.5,-0.5 -0.6,0.3 -0.8,0.9 -0.5,1.5 8.7,17.800001 10,42.200001 3.3,65.200001 l -0.3,1.1 1.1,0.3 c 2.7,0.7 4.3,3.2 4.3,5.1 0,1.7 -1,2.9 -2.8,3.5 -0.6,0.2 -0.9,0.8 -0.7,1.4 0.1,0.5 0.6,0.8 1.1,0.8 0.5,0 0.2,0 0.3,0 2.8,-0.9 4.4,-3 4.3,-5.6 0,-2.9 -2,-5.6 -4.9,-6.8 z"
       id="path10" />
    <path
       class="st0"
       d="m 63.024885,-31.127119 c -3.6,0.5 -7.3,0.5 -10.9,-0.2 -2.2,-0.4 -3.5,-1.1 -3.9,-2.2 -0.1,-0.4 -0.2,-0.8 0,-1.3 0.2,-0.2 0.3,-0.5 0.3,-0.7 0,-0.2 0.2,-0.4 0.3,-0.5 0.6,-0.7 1.5,-1.3 2.6,-1.5 2.5,-0.6 5.3,0.3 7,2.2 0.4,0.5 1.1,0.5 1.6,0 0.5,-0.4 0.5,-1.1 0,-1.6 -2.3,-2.5 -5.9,-3.6 -9.2,-2.8 -0.7,0.2 -1.6,0.5 -2.5,1.1 -7.5,-5 -12.3,-16 -11,-25.3 0.2,-1.6 1.3,-7 5.3,-8.3 2.4,-0.8 5.4,0.2 8.1,2.5 3.4,2.9 5.7,7 6.4,11.4 0,0.6 0.6,1 1.3,0.9 0.6,0 1,-0.7 0.9,-1.3 -0.4,-2.7 -1.4,-5.3 -2.8,-7.6 0,0 0.2,0 0.3,-0.2 11.3,-10.4 16.8,-26.9 14.1,-42.000001 0.9,-0.6 1.5,-1.7 1.5,-2.9 0,-2 -1.6,-3.6 -3.6,-3.6 -2,0 -3.6,1.6 -3.6,3.6 0,2 1.6,3.5 3.5,3.6 2.4,14.300001 -2.8,29.800001 -13.4,39.700001 -0.9,-1.2 -1.9,-2.3 -3.1,-3.3 -1.6,-1.3 -5.7,-4.3 -10.2,-2.9 -3.6,1.1 -6.1,4.9 -6.8,10.1 -1.1,8 2,17.1 7.3,23.2 -6.1,2 -13.3,1 -18.6,-2.7 -5.7,-3.9 -9.2,-10.9 -9,-17.8 0,-0.6 -0.5,-1.1 -1.1,-1.1 -0.5,0 -1.1,0.5 -1.1,1.1 -0.2,7.6 3.7,15.3 10,19.7 3.9,2.7 8.6,4.1 13.4,4.1 4.8,0 5.5,-0.5 8.1,-1.5 0.8,0.8 1.7,1.5 2.7,2.2 -0.2,0.3 -0.4,0.7 -0.5,1.1 -6.9,6.4 -18.2,9.5 -26.5,7.2 -0.6,-0.2 -1.2,0.2 -1.4,0.8 -0.2,0.6 0.2,1.2 0.8,1.4 2,0.6 4.2,0.8 6.5,0.8 7.1,0 14.9,-2.6 20.5,-7.2 0,0 0,0.1 0,0.2 0.7,1.9 2.5,3 5.6,3.6 2.1,0.4 4.3,0.6 6.4,0.6 2.1,0 3.5,-0.1 5.2,-0.4 0.6,0 1,-0.7 0.9,-1.3 0,-0.6 -0.7,-1 -1.3,-0.9 z m 4.5,-80.300001 c 0,-0.7 0.6,-1.4 1.4,-1.4 0.8,0 1.4,0.6 1.4,1.4 0,0.8 -0.6,1.4 -1.4,1.4 -0.8,0 -1.4,-0.6 -1.4,-1.4 z"
       id="path11" />
    <path
       class="st0"
       d="m 24.224885,-30.827119 c 0.6,0 1,-0.6 0.9,-1.3 -0.1,-0.7 -0.6,-1.1 -1.3,-0.9 -7.6,1 -15.7000003,-3.2 -19.3000003,-10 -0.3,-0.5 -0.9,-0.8 -1.5,-0.5 -0.5,0.3 -0.8,1 -0.5,1.5 3.6,6.9 11.2000003,11.4 18.9000003,11.4 7.7,0 1.8,0 2.6,-0.2 z"
       id="path12" />
    <path
       class="st0"
       d="m 7.2248847,-43.727119 c 0.1,0.5 0.6,0.8 1.1,0.8 0.5,0 0.2,0 0.3,0 0.6,-0.2 0.9,-0.8 0.7,-1.4 -2.1,-6.8 -1.7,-14.4 1.1000003,-20.9 0.2,0 0.4,0 0.6,0 2,0 3.6,-1.6 3.6,-3.6 0,-2 -1.6,-3.6 -3.6,-3.6 -2.0000003,0 -3.6000003,1.6 -3.6000003,3.6 0,2 0.4,1.8 1,2.4 -3,7.1 -3.5,15.3 -1.3,22.6 z m 3.9000003,-26.5 c 0.7,0 1.4,0.6 1.4,1.4 0,0.8 -0.6,1.4 -1.4,1.4 -0.8,0 -1.4000003,-0.6 -1.4000003,-1.4 0,-0.8 0.6000003,-1.4 1.4000003,-1.4 z"
       id="path13" />
    <path
       class="st0"
       d="m 55.524885,-93.127119 c 1,0.4 2.6,1 4.3,1 1.7,0 1.9,-0.2 2.8,-0.7 1.6,-0.9 2.6,-2.8 2.6,-4.9 0,-1.8 -0.5,-3.400001 -1,-5.000001 -0.2,-0.7 -0.5,-1.4 -0.8,-2.1 -1.1,-3 -2.3,-6.1 -2.6,-9.3 -0.3,-3.3 0.4,-7.6 3.5,-10 0.5,-0.4 0.6,-1.1 0.2,-1.6 -0.4,-0.5 -1.1,-0.6 -1.6,-0.2 -3.2,2.5 -4.9,7 -4.4,12 0.3,3.4 1.5,6.7 2.7,9.9 0.3,0.7 0.5,1.4 0.8,2.1 0.5,1.4 0.9,2.800001 0.9,4.200001 0,1.1 -0.4,2.4 -1.5,3.1 -1.4,0.8 -3.4,0.2 -5.1,-0.4 -4.4,-1.6 -9.4,-3.4 -12.6,-7.100001 -2.9,-3.4 -3.9,-9.1 -0.7,-12.2 0.6,-0.6 1.3,-1.1 2.1,-1.6 1.3,-0.9 2.7,-1.8 3.5,-3.3 0.9,-1.5 1,-3.1 1.1,-4.7 0,-1.1 0.1,-2.1 0.4,-3 0.5,-1.4 1.7,-2.6 3.2,-3.2 1.6,-0.6 3.2,-0.5 4.5,0.2 0.5,0.3 1.2,0.1 1.6,-0.4 0.3,-0.5 0.1,-1.2 -0.4,-1.6 -1.9,-1.1 -4.2,-1.2 -6.5,-0.4 -2.2,0.8 -3.9,2.5 -4.6,4.6 -0.4,1.2 -0.5,2.4 -0.6,3.5 0,1.4 -0.2,2.7 -0.8,3.7 -0.6,1 -1.7,1.8 -2.8,2.5 -0.8,0.5 -1.7,1.1 -2.4,1.8 -4.1,4 -3,11.2 0.6,15.3 3.6,4.100001 9.1,6.100001 13.5,7.800001 z"
       id="path14" />
    <path
       class="st0"
       d="m 98.324885,-143.22712 c -1.2,0 -2.3,-0.2 -3.4,-0.3 -3.4,-0.5 -6.5,-2 -9.8,-3.5 -3.3,-1.5 -6.7,-3.1 -10.3,-3.7 -4.9,-0.8 -10.2,0.7 -14.6,3.9 -4.4,3.2 -7.2,7.9 -7.9,12.9 0,0.6 0.3,1.2 1,1.3 0.6,0 1.2,-0.4 1.3,-1 0.6,-4.3 3.2,-8.5 7,-11.4 3.9,-2.9 8.6,-4.2 12.9,-3.5 3.4,0.5 6.5,2 9.7,3.5 3.3,1.6 6.7,3.2 10.5,3.7 1.1,0.2 2.3,0.3 3.6,0.3 0.9,0 1.899995,0.1 2.799995,0.2 l 0.8,0.5 c -1.1,0.4 -2.199995,0.9 -2.899995,1.8 -0.7,0.9 -0.9,2.4 0,3.1 0.5,0.4 1.099995,0.5 1.699995,0.6 2.5,0.4 5,0.8 7.5,1.2 -0.1,1.5 -0.5,2.8 -0.9,3.8 -4.3,11.6 -17.699995,19.4 -29.899995,17.4 -0.6,0 -1.2,0.3 -1.3,0.9 -0.1,0.6 0.3,1.2 0.9,1.3 1.5,0.2 3,0.4 4.5,0.4 12,0 23.799995,-7.8 27.899995,-19.2 1.1,-3 1.9,-7.2 -0.5,-10.4 -2.4,-3.3 -6.6,-3.6 -10.499995,-3.9 z"
       id="path15" />
    <path
       class="st0"
       d="m 75.524885,-133.72712 c 1.9,-0.5 3,-2.5 2.4,-4.4 -0.5,-1.9 -2.5,-3 -4.4,-2.4 -1.9,0.5 -3,2.5 -2.4,4.4 0.6,1.9 2.5,3 4.4,2.4 z"
       id="path16" />
    <path
       style="fill:#000000;stroke-width:1.69492;fill-opacity:0"
       d=""
       id="path34"
       transform="matrix(0.99565903,0,0,1,2.4051908,-150.93908)" />
  </g>
</svg>
